<?xml version="1.0" standalone="no"?>
<!DOCTYPE svg PUBLIC "-//W3C//DTD SVG 20010904//EN"
 "http://www.w3.org/TR/2001/REC-SVG-20010904/DTD/svg10.dtd">
<svg version="1.0" xmlns="http://www.w3.org/2000/svg"
 width="383.000000pt" height="383.000000pt" viewBox="0 0 383.000000 383.000000"
 preserveAspectRatio="xMidYMid meet">
<metadata>
Created by potrace 1.14, written by Peter Selinger 2001-2017
</metadata>
<g transform="translate(0.000000,383.000000) scale(0.100000,-0.100000)"
fill="#000000" stroke="none">
<path d="M1635 3570 c-4 -17 -29 -53 -56 -80 -27 -27 -49 -58 -49 -69 0 -10
-6 -24 -13 -30 -11 -9 -18 -3 -32 29 -10 22 -20 38 -22 36 -3 -2 3 -20 12 -39
29 -62 26 -86 -17 -133 -13 -14 -21 -40 -23 -73 -2 -28 -10 -64 -18 -81 -9
-16 -18 -43 -22 -60 -6 -28 -24 -42 -26 -20 -1 6 -2 14 -3 19 -3 25 -16 21
-16 -5 0 -16 -5 -46 -10 -66 l-11 -38 -31 36 c-38 43 -105 90 -142 100 -15 3
-54 34 -86 68 -33 33 -69 71 -80 83 -12 11 -45 34 -74 49 -29 15 -62 40 -72
56 -27 39 -36 35 -18 -9 9 -20 17 -54 19 -75 3 -34 2 -38 -15 -33 -26 8 -137
8 -151 0 -6 -4 -28 -7 -50 -7 -43 1 -49 -7 -20 -25 10 -6 30 -42 45 -80 37
-91 87 -179 130 -227 20 -21 33 -43 30 -47 -8 -14 -52 -10 -84 6 -16 8 -31 11
-35 6 -6 -11 -65 -9 -85 4 -13 7 -13 6 -2 -7 7 -9 24 -19 37 -22 34 -9 31 -23
-9 -40 -18 -8 -48 -30 -65 -49 -29 -32 -36 -34 -95 -35 -55 0 -71 -5 -127 -40
-35 -21 -66 -39 -69 -40 -3 0 -22 -8 -43 -17 -37 -15 -80 -16 -177 -1 -19 3
-10 -1 20 -10 30 -8 62 -22 71 -30 8 -8 23 -14 32 -14 9 0 18 -4 18 -10 1 -5
2 -13 4 -17 15 -55 21 -73 38 -103 11 -19 36 -49 55 -66 31 -27 33 -32 21 -51
-10 -16 -10 -25 -1 -35 6 -8 7 -19 3 -27 -7 -11 -13 -9 -31 9 -32 32 -35 18
-6 -29 14 -22 27 -49 29 -58 2 -10 9 -28 16 -41 11 -20 9 -27 -19 -58 -17 -20
-33 -49 -37 -64 -3 -16 -16 -36 -29 -44 -16 -12 -22 -22 -18 -41 3 -16 -7 -45
-28 -82 -17 -31 -27 -53 -20 -49 7 4 19 20 27 36 10 20 37 40 78 60 34 17 71
40 82 50 22 20 68 27 100 16 21 -8 67 -30 123 -59 37 -19 34 -34 -8 -42 -12
-2 -30 -11 -39 -19 -9 -8 -32 -21 -51 -29 -43 -18 -70 -43 -111 -104 -18 -27
-40 -57 -49 -68 -9 -11 -25 -47 -35 -80 -25 -80 -26 -84 -32 -128 -3 -21 -18
-62 -34 -90 -59 -105 -86 -182 -67 -193 5 -3 18 2 29 12 12 10 39 19 67 20
132 8 189 25 223 68 16 20 17 18 28 -39 7 -33 14 -64 15 -70 2 -5 -1 -23 -5
-40 -7 -24 -6 -27 4 -15 7 8 24 21 39 27 19 9 38 36 68 97 46 96 86 150 106
142 8 -3 14 -2 14 2 0 17 100 116 120 119 21 3 21 3 3 -29 -10 -18 -22 -35
-27 -37 -5 -2 -34 -28 -65 -58 -49 -48 -54 -55 -38 -64 17 -10 24 -39 8 -39
-4 0 -21 -19 -37 -42 l-29 -43 0 -215 0 -216 38 -51 c20 -28 37 -55 37 -61 0
-6 4 -13 9 -16 4 -3 6 5 4 17 -3 13 4 32 16 46 12 13 21 31 22 40 0 9 2 25 5
36 2 11 5 49 7 85 2 36 9 75 16 88 11 22 9 111 -5 158 -3 12 -1 24 4 28 13 8
60 -47 68 -80 4 -15 13 -38 20 -52 12 -23 12 -22 20 20 4 24 7 46 6 51 -1 4 1
7 5 7 5 0 17 -19 27 -43 11 -23 40 -73 65 -111 71 -105 84 -124 76 -101 -4 11
-10 32 -13 48 -2 15 -8 30 -13 33 -13 8 -10 47 5 67 14 17 15 17 22 -5 4 -13
33 -55 65 -94 59 -72 62 -82 44 -144 -3 -8 -7 -33 -11 -55 l-6 -39 44 39 c23
21 50 47 59 57 9 10 20 18 24 18 15 0 143 102 154 124 7 13 16 38 20 56 l6 32
27 -42 c25 -38 54 -115 50 -132 -1 -5 2 -8 8 -8 5 0 10 11 10 24 0 56 9 59 63
19 28 -20 78 -65 113 -98 l62 -62 -1 46 c-1 30 8 65 24 101 31 67 45 106 54
144 10 48 27 58 62 37 26 -16 30 -25 32 -72 1 -31 10 -68 21 -86 10 -18 18
-45 18 -61 -2 -61 25 -136 77 -212 31 -45 56 -93 59 -115 6 -38 16 -60 16 -37
0 23 2 27 36 65 19 20 34 40 34 45 0 4 22 30 48 59 26 28 61 67 79 86 69 76
137 251 146 379 6 68 14 50 21 -43 6 -80 10 -96 36 -128 16 -20 32 -53 36 -75
4 -24 22 -56 49 -86 23 -26 45 -59 49 -74 6 -24 25 -37 27 -18 3 27 12 51 58
141 l50 101 17 -24 c8 -14 13 -30 9 -35 -7 -13 -16 -91 -10 -91 10 0 66 123
79 172 8 29 19 64 24 78 9 23 10 24 17 5 3 -11 11 -28 16 -37 5 -10 9 -26 10
-35 1 -32 18 18 18 55 1 45 59 144 61 105 6 -109 15 -162 32 -185 11 -16 21
-40 24 -55 7 -46 25 -106 42 -138 15 -29 49 -65 61 -65 3 0 16 24 29 53 19 42
23 63 18 112 -3 33 -10 74 -15 90 -6 17 -17 74 -25 127 -18 124 -48 187 -104
217 -26 14 -29 36 -6 45 13 5 14 9 4 21 -7 8 -18 15 -24 15 -6 1 -26 14 -45
30 -19 16 -38 27 -42 24 -4 -2 -21 10 -38 28 l-31 33 26 3 c20 3 36 -6 63 -32
20 -20 42 -36 48 -36 6 0 14 -8 17 -17 6 -14 9 -15 15 -4 12 19 88 -52 138
-129 34 -53 59 -73 96 -75 5 0 16 -9 24 -20 16 -20 16 -20 8 0 -10 24 -21 144
-17 169 3 15 6 16 20 3 19 -16 109 -47 116 -39 3 2 30 6 60 7 31 2 65 6 75 10
11 3 34 -1 51 -10 33 -17 38 -12 28 37 -4 16 -9 23 -60 84 -24 28 -51 61 -60
72 -9 12 -22 40 -29 64 -7 24 -23 59 -36 78 -13 19 -23 41 -23 49 0 8 -38 51
-83 96 -70 69 -94 86 -148 104 -35 13 -76 24 -91 26 -49 6 -65 28 -27 40 11 4
33 21 50 39 40 44 123 72 154 52 11 -8 52 -23 89 -34 46 -14 80 -32 102 -53
45 -44 43 -29 -3 22 -32 36 -39 51 -42 97 -1 6 -9 12 -19 12 -10 0 -25 12 -33
28 -17 33 -65 82 -80 82 -8 0 -9 11 -4 33 4 17 7 41 7 51 -1 10 6 32 14 47 7
15 14 38 13 51 0 23 0 23 -9 2 -5 -12 -14 -25 -20 -29 -17 -11 -31 16 -17 33
8 11 7 16 -6 23 -23 13 -21 24 7 62 29 38 53 105 60 167 3 25 5 46 5 48 1 1 7
2 14 2 6 0 23 12 36 26 l24 25 -29 -7 c-56 -13 -112 -6 -202 25 -85 30 -97 31
-149 21 -31 -5 -59 -10 -62 -10 -3 0 -21 13 -40 29 -18 16 -51 32 -72 35 -22
3 -39 11 -39 16 0 6 4 10 8 10 10 0 52 35 52 43 0 3 -14 -1 -31 -10 -16 -8
-40 -13 -51 -10 -13 4 -32 -2 -49 -14 -27 -19 -79 -26 -79 -11 0 4 12 24 26
45 25 38 63 133 69 173 6 45 29 140 37 156 4 9 24 20 43 24 19 3 35 10 35 14
0 4 -21 3 -47 -2 -27 -5 -75 -10 -108 -12 -33 -1 -79 -9 -103 -16 -23 -7 -45
-10 -50 -6 -6 7 -6 84 1 131 2 11 18 27 36 37 45 22 49 29 14 19 -47 -14 -70
-29 -93 -61 -12 -17 -30 -30 -42 -30 -11 0 -36 -13 -55 -30 -18 -16 -45 -30
-59 -30 -29 0 -75 -22 -93 -44 -17 -20 -26 -20 -45 -1 -24 24 -58 33 -88 23
-16 -6 -28 -13 -28 -17 0 -5 -11 -8 -25 -7 -17 1 -30 10 -39 26 -13 26 -17 27
-50 14 -14 -5 -17 -4 -12 4 15 24 -22 11 -53 -18 -33 -32 -36 -28 -21 35 12
53 4 58 -10 6 -13 -49 -24 -51 -46 -8 -10 17 -23 37 -31 42 -21 15 63 95 108
102 51 7 73 24 25 18 -52 -6 -76 -14 -76 -26 0 -6 -4 -8 -9 -4 -5 3 -19 -7
-30 -21 -26 -33 -27 -15 -2 51 12 33 30 58 51 73 20 13 27 22 17 22 -9 0 -24
-8 -34 -19 -24 -24 -73 -40 -106 -34 -15 3 -34 0 -42 -7 -9 -7 -27 -10 -43 -7
-22 4 -35 0 -55 -19 -15 -14 -27 -29 -27 -34 0 -16 -64 -77 -97 -93 -26 -12
-33 -13 -33 -2 0 7 7 18 15 25 17 14 20 76 5 114 -5 15 -6 36 -1 48 4 12 5 36
1 53 -4 16 -4 56 0 88 6 60 -4 79 -15 27z m1075 -325 c0 -8 -14 -29 -30 -47
-30 -32 -30 -32 -21 -6 9 23 40 68 48 68 2 0 3 -7 3 -15z m-803 -157 c-2 -24
0 -53 4 -65 6 -15 2 -28 -12 -44 l-19 -22 -28 24 c-15 13 -29 25 -31 26 -2 2
3 11 11 20 9 10 19 28 23 41 6 19 42 62 52 62 2 0 2 -19 0 -42z m473 7 c9 -11
5 -17 -21 -31 -18 -9 -44 -20 -58 -24 -14 -4 -34 -11 -43 -15 -29 -12 -21 16
18 62 32 38 37 41 64 31 16 -5 34 -16 40 -23z m173 -32 c-13 -34 -86 -133 -98
-133 -3 0 -22 -12 -40 -26 -22 -17 -43 -24 -62 -22 -28 3 -28 3 12 24 22 11
53 41 70 65 51 76 137 143 118 92z m-1070 -127 c-3 -14 -11 -27 -18 -30 -11
-4 -11 1 -3 25 12 35 27 39 21 5z m-391 -1661 c5 -24 -15 -54 -25 -38 -7 11 4
63 13 63 4 0 10 -11 12 -25z m1773 -123 c-3 -3 0 -11 5 -17 11 -13 3 -45 -11
-45 -15 0 -30 39 -23 65 5 21 9 23 20 14 8 -7 12 -14 9 -17z"/>
<path d="M524 3223 c8 -8 56 -10 56 -2 0 4 -14 7 -30 7 -17 -1 -28 -3 -26 -5z"/>
<path d="M3603 2654 c-18 -8 -33 -16 -33 -18 0 -10 45 5 59 19 18 18 16 18
-26 -1z"/>
<path d="M3281 544 c0 -11 3 -14 6 -6 3 7 2 16 -1 19 -3 4 -6 -2 -5 -13z"/>
</g>
</svg>
